<svg width="50" height="35" viewBox="0 0 50 35" fill="none" xmlns="http://www.w3.org/2000/svg">
<path d="M2.5 32.5H19.8582M19.8582 32.5H20.1418M19.8582 32.5C19.9055 32.5005 19.9528 32.5005 20 32.5005C20.0472 32.5005 20.0945 32.5005 20.1418 32.5M19.8582 32.5C10.2585 32.4237 2.5 24.617 2.5 14.9995V4.80712C2.5 3.53262 3.53263 2.5 4.80713 2.5H35.1917C36.4662 2.5 37.5 3.53262 37.5 4.80712V5M20.1418 32.5H37.5M20.1418 32.5C29.7415 32.4237 37.5 24.617 37.5 14.9995M37.5 5H41.25C44.7018 5 47.5 7.79825 47.5 11.25C47.5 14.7018 44.7018 17.5 41.25 17.5H37.5V14.9995M37.5 5V14.9995" stroke="white" stroke-width="5" stroke-linecap="round" stroke-linejoin="round"/>
</svg>
