<svg width="27" height="27" viewBox="0 0 27 27" fill="none" xmlns="http://www.w3.org/2000/svg">
<g clip-path="url(#clip0_1_21)">
<path d="M13.5002 11.7142C12.5139 11.7142 11.7142 12.5139 11.7142 13.5001C11.7142 14.4859 12.5139 15.2857 13.5002 15.2857C14.4861 15.2857 15.2857 14.4859 15.2857 13.5001C15.2857 12.5139 14.4859 11.7142 13.5002 11.7142Z" fill="black"/>
<path d="M12.5167 10.3379C12.6249 10.781 13.0239 11.1104 13.5002 11.1104C13.9761 11.1104 14.3752 10.781 14.4837 10.3379L16.453 3.83052C16.5184 3.58188 16.5532 3.32174 16.5532 3.05332C16.5532 1.36672 15.1865 0 13.5003 0C11.8141 0 10.447 1.36672 10.447 3.05332C10.447 3.32174 10.4822 3.58188 10.5471 3.83052L12.5167 10.3379Z" fill="black"/>
<path d="M14.4836 16.6612C14.3752 16.2182 13.976 15.8896 13.5001 15.8896C13.0238 15.8896 12.6248 16.2182 12.5167 16.6612L10.5469 23.1698C10.482 23.4181 10.4468 23.6781 10.4468 23.9469C10.4468 25.6329 11.8139 27 13.5001 27C15.1863 27 16.553 25.6329 16.553 23.9469C16.553 23.6781 16.5183 23.4181 16.4528 23.1698L14.4836 16.6612Z" fill="black"/>
<path d="M4.5745 8.75028L10.5688 11.9596C10.9592 12.196 11.4739 12.1473 11.8108 11.8108C12.1473 11.4735 12.1965 10.9591 11.9601 10.5688L8.7507 4.57445C8.62119 4.35313 8.46208 4.14409 8.2716 3.95403C7.0795 2.7615 5.14657 2.7615 3.95403 3.95403C2.7615 5.14615 2.7615 7.07944 3.95403 8.27156C4.14413 8.46124 4.35318 8.62118 4.5745 8.75028Z" fill="black"/>
<path d="M22.4255 18.2493L16.4312 15.0399C16.0411 14.8032 15.5264 14.8526 15.19 15.1892C14.8527 15.5265 14.8035 16.0408 15.0399 16.4312L18.2496 22.4256C18.3791 22.6472 18.5378 22.8559 18.7283 23.0454C19.9208 24.238 21.8537 24.238 23.0458 23.0454C24.2388 21.8538 24.2383 19.9204 23.0458 18.7284C22.8558 18.5383 22.6476 18.3788 22.4255 18.2493Z" fill="black"/>
<path d="M10.3384 14.4837C10.7814 14.3751 11.1104 13.976 11.1104 13.5001C11.1104 13.0239 10.7814 12.6248 10.3384 12.5162L3.83052 10.547C3.58193 10.4817 3.32174 10.4468 3.05332 10.4468C1.36709 10.4468 0 11.814 0 13.5001C0 15.1864 1.36713 16.5531 3.05332 16.5531C3.32174 16.5531 3.58193 16.5179 3.83052 16.4529L10.3384 14.4837Z" fill="black"/>
<path d="M23.9469 10.4468C23.6781 10.4468 23.4181 10.4816 23.1698 10.547L16.6616 12.5163C16.219 12.6249 15.8896 13.0239 15.8896 13.5002C15.8896 13.9761 16.219 14.3751 16.6616 14.4837L23.1698 16.453C23.4181 16.5179 23.6781 16.5533 23.9469 16.5533C25.6332 16.5533 27 15.1865 27 13.5002C27 11.8135 25.6332 10.4468 23.9469 10.4468Z" fill="black"/>
<path d="M11.8108 15.1892C11.4739 14.8526 10.9591 14.8032 10.5688 15.0399L4.57451 18.2493C4.35319 18.3788 4.14415 18.5383 3.95409 18.7284C2.76156 19.9205 2.76156 21.8538 3.95409 23.0455C5.14663 24.2381 7.07956 24.2381 8.27166 23.0455C8.4613 22.8559 8.62124 22.6473 8.75034 22.4255L11.9601 16.4312C12.1965 16.0408 12.1473 15.5265 11.8108 15.1892Z" fill="black"/>
<path d="M15.19 11.8101C15.5264 12.1473 16.0411 12.196 16.4312 11.9597L22.4255 8.75077C22.6476 8.62125 22.8558 8.4621 23.0458 8.27168C24.2383 7.07956 24.2388 5.14627 23.0458 3.95415C21.8537 2.76162 19.9205 2.76162 18.7283 3.95415C18.5378 4.14421 18.379 4.35325 18.2496 4.57457L15.0399 10.5688C14.8035 10.9592 14.8527 11.4735 15.19 11.8101Z" fill="black"/>
</g>
<defs>
<clipPath id="clip0_1_21">
<rect width="27" height="27" fill="white"/>
</clipPath>
</defs>
</svg>
