<svg width="60" height="42" viewBox="0 0 60 42" fill="none" xmlns="http://www.w3.org/2000/svg">
<path d="M11.7437 6H2.08367C0.973671 6 -0.136329 6.96 0.0136712 8.52L4.69367 38.49C4.69367 38.49 10.2437 16.41 11.3237 11.1C11.6537 9.51 13.1537 9 14.2637 9H29.7437C29.7437 9 27.6437 2.76 27.4337 2.07C27.0737 0.75 26.4137 0 25.0937 0H15.1637C14.0837 0 13.0637 0.69 12.7637 1.92C12.4937 3.12 11.7437 6 11.7437 6ZM26.3837 6H14.3837C14.3837 6 15.6437 3 16.9937 3H23.3837C24.8237 3 26.3837 6 26.3837 6ZM7.75367 39.75C6.82367 41.16 5.47367 42 3.97367 42H51.1637C52.7837 42 53.9237 41.07 54.2537 39.51C55.5737 32.94 59.2937 14.19 59.2937 14.19C59.5037 12.69 58.3937 12 57.4337 12H47.7437V7.59C47.7437 7.11 46.9637 6 45.7637 6H34.4837C32.9237 6 31.8737 7.74 31.8737 7.74L29.7437 12H16.5137C15.5537 12 14.6237 12.57 14.4437 13.5C14.4437 13.5 9.67367 33.6 9.28367 35.49C9.07367 36.6 8.62367 38.46 7.75367 39.75ZM45.8837 12H32.7437C32.7437 12 34.4837 9 36.1337 9H43.0037C45.1337 9 45.8837 12 45.8837 12Z" fill="white"/>
</svg>
