<svg width="200" height="200" viewBox="0 0 200 200" fill="none" xmlns="http://www.w3.org/2000/svg">
<rect width="200" height="200" fill="black"/>
<path d="M41.072 131.016H46.256C49.5413 131.016 52.4213 130.483 54.896 129.416C57.4133 128.307 59.376 126.365 60.784 123.592C62.192 120.776 62.896 116.808 62.896 111.688V57.736H73.776V112.776C73.776 119.603 72.56 125.085 70.128 129.224C67.696 133.363 64.5173 136.371 60.592 138.248C56.7093 140.083 52.5067 141 47.984 141H41.072V131.016ZM143.095 57.736H153.911V141H142.199L98.039 72.712V141H87.031V57.736H101.175L143.095 123.336V57.736Z" fill="white"/>
</svg>
