<svg width="45" height="38" viewBox="0 0 45 38" fill="none" xmlns="http://www.w3.org/2000/svg">
<path d="M9.90844 12.9535C10.6045 14.3358 10.7425 15.9327 10.294 17.414C9.84555 18.8952 8.84485 20.1474 7.49897 20.9114C4.94108 21.8114 1.8716 19.6988 0.64634 16.1998C-0.0508952 14.8176 -0.189941 13.2202 0.257986 11.7383C0.705913 10.2563 1.70651 9.00338 3.05266 8.23878C5.61055 7.33878 8.68002 9.45457 9.90844 12.9535ZM30.5011 37.8314C29.3849 37.8329 28.2793 37.6139 27.248 37.1868C26.2167 36.7598 25.28 36.1332 24.4916 35.343C23.9018 34.7537 23.1022 34.4226 22.2684 34.4226C21.4347 34.4226 20.6351 34.7537 20.0453 35.343C18.4479 36.9221 16.2905 37.8049 14.0444 37.7984C11.7982 37.7919 9.64591 36.8968 8.05764 35.3085C6.46937 33.7203 5.57423 31.568 5.56777 29.3218C5.56132 27.0757 6.44407 24.9183 8.02318 23.3209C9.89337 21.4492 12.1141 19.9645 14.5583 18.9514C17.0026 17.9384 19.6226 17.417 22.2684 17.417C24.9143 17.417 27.5343 17.9384 29.9786 18.9514C32.4228 19.9645 34.6435 21.4492 36.5137 23.3209C37.7021 24.51 38.5113 26.0247 38.8389 27.6736C39.1666 29.3225 38.998 31.0315 38.3544 32.5846C37.7109 34.1377 36.6213 35.4651 35.2234 36.399C33.8256 37.3329 32.1822 37.8314 30.5011 37.8314ZM21.4158 7.13351C21.8169 11.3556 19.6379 15.0156 16.5527 15.3061C13.4674 15.5967 10.6411 12.4104 10.2432 8.18825C9.84213 3.9693 12.0211 0.309303 15.1063 0.0187763C18.1916 -0.274908 21.0148 2.91141 21.4158 7.13351ZM23.1211 7.13351C22.72 11.3556 24.899 15.0156 27.9842 15.3061C31.0695 15.5967 33.8927 12.4104 34.2937 8.18825C34.6948 3.9693 32.5158 0.309303 29.4305 0.0187763C26.3453 -0.274908 23.519 2.91141 23.1211 7.13351ZM34.6284 12.9504C33.9305 14.3333 33.7914 15.9318 34.24 17.4145C34.6886 18.8972 35.6904 20.1504 37.0379 20.9146C39.5958 21.8114 42.6653 19.6988 43.8906 16.1998C44.5878 14.8176 44.7268 13.2202 44.2789 11.7383C43.831 10.2563 42.8304 9.00338 41.4842 8.23878C38.9263 7.33878 35.8569 9.45141 34.6284 12.9504Z" fill="white"/>
</svg>
