<svg width="362" height="800" viewBox="0 0 362 800" fill="none" xmlns="http://www.w3.org/2000/svg">
<path d="M263.575 131.433C299.869 131.433 329.291 102.011 329.291 65.7165C329.291 29.4223 299.869 0 263.575 0C227.281 0 197.858 29.4223 197.858 65.7165C197.858 102.011 227.281 131.433 263.575 131.433Z" fill="white"/>
<path d="M59.6812 194.444C45.0491 200.946 30.9958 207.676 17.7233 214.339C-22.4847 234.531 12.8504 294.701 52.9507 274.577C55.3064 273.406 57.7024 272.329 60.0581 271.185C58.8736 245.798 58.389 220.141 59.6812 194.444Z" fill="white"/>
<path d="M354.49 194.39C356.617 182.329 351.919 169.972 336.668 163.43C278.718 138.54 212.41 143.911 149.277 161.559C149.291 164.116 149.17 166.687 148.766 169.285C145.481 190.446 144.795 208.686 145.212 230.479L263.588 226.266C263.588 226.266 280.172 230.627 267.815 236.523C250.41 237.29 135.547 242.823 135.547 242.823C134.134 213.612 134.04 184.348 138.482 155.69C145.293 111.686 78.0823 92.7865 71.2038 137.14C62.2926 194.565 66.6001 251.505 69.9654 309.199C71.4192 334.492 98.8257 354.118 122.45 339.325C139.478 328.65 155.887 316.67 171.529 303.761L171.475 326.308L170.99 569.481V762.377C170.99 783.147 186.174 800 207.537 800C228.872 800 246.21 783.147 246.21 762.377V486.669H280.347C280.347 551.268 280.347 698.706 280.347 763.319C280.347 808.305 350.129 808.305 350.129 763.319C350.129 698.706 350.129 634.107 350.129 569.534C364.357 278.212 364.411 279.087 354.49 194.39Z" fill="white"/>
</svg>
