<svg width="15" height="15" viewBox="0 0 15 15" fill="none" xmlns="http://www.w3.org/2000/svg">
<path d="M3.36578 1.55355C2.88471 1.55445 2.4328 1.56579 1.98165 1.55202C1.73322 1.54444 1.65934 1.64202 1.66146 1.88112C1.67042 2.89426 1.66545 3.90752 1.66467 4.92074C1.66437 5.31403 1.59944 5.37635 1.19898 5.37778C0.943755 5.3787 0.688534 5.38209 0.433312 5.38174C0.084717 5.38128 0.013211 5.32042 0.00999883 4.97467C0.00232028 4.14842 0.00318043 3.32209 0.00216549 2.49579C0.0013215 1.80719 0.00143491 1.11859 0.00362671 0.430003C0.00478741 0.0657166 0.0702938 -0.00312674 0.432179 0.000106373C1.42336 0.00896006 2.41447 0.0282262 3.40566 0.0326967C3.93515 0.0350846 4.46477 0.0165952 4.99428 0.0052716C5.30633 -0.00140155 5.37711 0.0631507 5.37939 0.374699C5.38134 0.640286 5.38161 0.905914 5.3795 1.1715C5.37671 1.52155 5.34566 1.55255 4.98566 1.55372C4.45553 1.55543 3.9254 1.55375 3.36578 1.55355Z" fill="black"/>
<path d="M5.37935 13.8911C5.37946 14.146 5.37384 14.3725 5.38191 14.5985C5.39036 14.8352 5.28143 14.9446 5.04942 14.9439C3.67495 14.9398 2.30048 14.9368 0.926018 14.9323C0.720134 14.9316 0.514264 14.9216 0.308398 14.9219C0.102574 14.9222 0.00374218 14.8327 0.00553448 14.6184C0.0117788 13.8708 -0.0119264 13.1221 0.0188798 12.3756C0.0505712 11.6077 -0.0233839 10.8423 0.00789006 10.0754C0.02333 9.69677 0.0565708 9.66264 0.440577 9.66501C0.724134 9.66676 1.00784 9.65627 1.29136 9.6473C1.56605 9.63862 1.66112 9.72696 1.66144 10.0099C1.66258 11.0134 1.67295 12.017 1.6552 13.0202C1.6498 13.3251 1.75013 13.4059 2.04301 13.4007C2.9951 13.384 3.94764 13.3956 4.89999 13.3919C5.37136 13.3901 5.37936 13.3936 5.37935 13.8911Z" fill="black"/>
<path d="M14.9947 12.8799C14.995 13.4703 14.9858 14.0315 14.9997 14.592C15.0061 14.8501 14.9025 14.9463 14.6555 14.9458C13.0843 14.9427 11.5131 14.9434 9.94186 14.9461C9.74535 14.9464 9.65364 14.8687 9.65805 14.6652C9.66507 14.3407 9.66871 14.0155 9.65645 13.6912C9.64746 13.4531 9.75426 13.388 9.97559 13.3898C10.987 13.3979 11.9987 13.3854 13.0099 13.4009C13.2975 13.4054 13.3836 13.3064 13.3796 13.0272C13.3652 12.0237 13.3713 11.0199 13.3674 10.0162C13.3663 9.72269 13.4403 9.65 13.724 9.65195C13.9981 9.65383 14.2723 9.63662 14.5465 9.63529C14.931 9.63342 14.9949 9.69725 14.9952 10.0754C14.9961 11.0004 14.995 11.9254 14.9947 12.8799Z" fill="black"/>
<path d="M13.3898 3.48514C13.3862 2.92435 13.3716 2.39287 13.3833 1.86197C13.3889 1.60979 13.29 1.54534 13.0544 1.54786C12.053 1.55858 11.0514 1.55466 10.0499 1.55465C9.67918 1.55464 9.66188 1.53647 9.66054 1.17747C9.65954 0.911832 9.66943 0.64573 9.65675 0.380686C9.64488 0.132447 9.72783 0.0287632 9.99366 0.0332531C10.7789 0.0465142 11.5645 0.0394154 12.3499 0.0342354C13.1148 0.0291918 13.8796 0.0201493 14.6443 0.00531678C14.8714 0.000911147 14.996 0.0722123 14.9955 0.322035C14.9921 1.88635 14.9928 3.45067 14.9956 5.01499C14.9961 5.28057 14.864 5.38731 14.6123 5.38351C14.3178 5.37907 14.023 5.37288 13.7287 5.38016C13.4738 5.38646 13.3728 5.25965 13.3754 5.01988C13.3808 4.51816 13.385 4.01642 13.3898 3.48514Z" fill="black"/>
<path d="M6.52676 9.24867C5.39374 8.60304 5.145 7.06244 5.96853 6.14064C7.03085 4.95156 8.70979 5.2905 9.34791 6.61898C9.94091 7.85352 9.21755 9.11942 7.93113 9.49415C7.46037 9.63128 6.97718 9.52049 6.52676 9.24867Z" fill="black"/>
</svg>
